<?xml version="1.0" encoding="UTF-8"?>
<svg width="80px" height="80px" viewBox="0 0 80 80" version="1.1" xmlns="http://www.w3.org/2000/svg" xmlns:xlink="http://www.w3.org/1999/xlink">
    <!-- Generator: Sketch 54.1 (76490) - https://sketchapp.com -->
    <title>162-BIG</title>
    <desc>Created with Sketch.</desc>
    <defs>
        <path d="M3.62647627,3.61418454 L3.62576287,3.61418454 C-1.19395405,8.35641845 -1.19395405,16.1157996 3.62576287,20.8587353 L3.62576287,20.8587353 L16.2999918,33.3266627 C21.7596268,38.6977321 30.6107558,38.6977321 36.0696774,33.3266627 L36.0696774,33.3266627 C40.2744452,29.1908059 40.2744452,22.423104 36.0696774,18.2865454 L36.0696774,18.2865454 L21.1553787,3.61418454 C18.7448068,1.24271667 15.5680455,0.0573336466 12.3905708,0.0573336466 L12.3905708,0.0573336466 C9.21309606,0.0573336466 6.03633474,1.24271667 3.62647627,3.61418454" id="path-1"></path>
    </defs>
    <g id="icons" stroke="none" stroke-width="1" fill="none" fill-rule="evenodd">
        <g id="icons_B2C_table" transform="translate(-1471.000000, -13362.000000)">
            <g id="162-BIG" transform="translate(1471.000000, 13362.000000)">
                <path d="M79.5660036,39.7830018 C79.5660036,61.754792 61.7533454,79.5660036 39.7830018,79.5660036 C17.8112116,79.5660036 0,61.754792 0,39.7830018 C0,17.8112116 17.8112116,0 39.7830018,0 C61.7533454,0 79.5660036,17.8112116 79.5660036,39.7830018" id="Fill-3" fill="#65B8DF"></path>
                <g id="Group-53" transform="translate(14.285714, 22.857143)">
                    <g id="Group-7" transform="translate(0.471939, 0.000000)">
                        <mask id="mask-2" fill="white">
                            <use xlink:href="#path-1"></use>
                        </mask>
                        <g id="Clip-6"></g>
                        <path d="M3.62647627,3.61418454 L3.62576287,3.61418454 C-1.19395405,8.35641845 -1.19395405,16.1157996 3.62576287,20.8587353 L3.62576287,20.8587353 L16.2999918,33.3266627 C21.7596268,38.6977321 30.6107558,38.6977321 36.0696774,33.3266627 L36.0696774,33.3266627 C40.2744452,29.1908059 40.2744452,22.423104 36.0696774,18.2865454 L36.0696774,18.2865454 L21.1553787,3.61418454 C18.7448068,1.24271667 15.5680455,0.0573336466 12.3905708,0.0573336466 L12.3905708,0.0573336466 C9.21309606,0.0573336466 6.03633474,1.24271667 3.62647627,3.61418454" id="Fill-5" fill="#FFFFFF" mask="url(#mask-2)"></path>
                    </g>
                    <path d="M31.1077407,38.5030667 L48.7701812,21.0262859 C53.5902117,16.2569214 53.5902117,8.45379797 48.7701812,3.68443348 L48.6610918,3.57649075 C43.841779,-1.19216358 35.9550436,-1.19216358 31.1357308,3.57649075 L13.4847734,21.0419092 C10.6714143,23.8256955 6.10831817,23.818594 3.30357143,21.0262859 L20.9380219,38.4995159 C23.7449217,41.2811718 28.2986878,41.2825921 31.1077407,38.5030667" id="Fill-8" fill="#7700FE"></path>
                </g>
            </g>
        </g>
    </g>
</svg>