<?xml version="1.0" encoding="utf-8"?>
<!-- Generator: Adobe Illustrator 22.1.0, SVG Export Plug-In . SVG Version: 6.00 Build 0)  -->
<svg version="1.1" id="Layer_1" xmlns="http://www.w3.org/2000/svg" xmlns:xlink="http://www.w3.org/1999/xlink" x="0px" y="0px"
	 viewBox="0 0 80 80" style="enable-background:new 0 0 80 80;" xml:space="preserve">
<style type="text/css">
	.st0{fill:none;stroke:#FFFFFF;stroke-width:2;stroke-linecap:round;stroke-linejoin:round;}
	.st1{fill:#FFFFFF;}
</style>
<title>Group 126 Copy</title>
<desc>Created with Sketch.</desc>
<g id="icons">
	<g id="Group-126-Copy" transform="translate(-16.000000, -16.000000)">
		<g id="Group-119-Copy-3">
			
				<g id="icon_212" transform="translate(56.000000, 56.000000) rotate(-225.000000) translate(-56.000000, -56.000000) translate(17.000000, 17.000000)">
				<path id="Shape" class="st0" d="M39,0.5C17.7,0.5,0.5,17.7,0.5,39S17.7,77.5,39,77.5S77.5,60.3,77.5,39l0,0"/>
				<path id="Shape_1_" class="st0" d="M39,11.9C24,11.9,11.9,24,11.9,39S24,66,39,66s27.1-12,27.1-27l0,0"/>
				<path id="Shape_2_" class="st0" d="M39,23.2c-8.6,0-15.8,7-15.8,15.8s7,15.8,15.8,15.8s15.8-7,15.8-15.8"/>
			</g>
		</g>
		<circle id="Oval-Copy-13" class="st1" cx="48.5" cy="82" r="7"/>
		<rect id="Rectangle-Copy-7" x="53.5" y="60" class="st1" width="2" height="22"/>
		<rect id="Rectangle-Copy-8" x="53.5" y="58" class="st1" width="8" height="4"/>
	</g>
</g>
</svg>
