<?xml version="1.0" encoding="UTF-8"?>
<svg width="80px" height="80px" viewBox="0 0 80 80" version="1.1" xmlns="http://www.w3.org/2000/svg" xmlns:xlink="http://www.w3.org/1999/xlink">
    <!-- Generator: Sketch 52.4 (67378) - http://www.bohemiancoding.com/sketch -->
    <title>156-BIG</title>
    <desc>Created with Sketch.</desc>
    <g id="icons" stroke="none" stroke-width="1" fill="none" fill-rule="evenodd">
        <g id="icons_B2C_table" transform="translate(-1472.000000, -12876.000000)">
            <g id="156-BIG" transform="translate(1472.000000, 12876.000000)">
                <path d="M79.0877193,39.7894737 C79.0877193,61.4932954 61.4932954,79.0877193 39.7894737,79.0877193 C18.0856519,79.0877193 0.49122807,61.4932954 0.49122807,39.7894737 C0.49122807,18.0856519 18.0856519,0.49122807 39.7894737,0.49122807 C61.4932954,0.49122807 79.0877193,18.0856519 79.0877193,39.7894737" id="Path_40" fill="#7700FF"></path>
                <g id="Group_16" transform="translate(15.438596, 15.438596)" stroke="#FFFFFF" stroke-linecap="round" stroke-linejoin="round">
                    <path d="M9.64210526,30.6105263 L20.4912281,0.49122807 L48.1824561,7.97192982 C44.1309942,19.8923977 40.0795322,31.8081871 36.0280702,43.7192982 C33.4596491,48.2666667 29.6561404,48.7719298 24.6035088,46.3298246 L4.02807018,39.5929825 C1.96340054,38.7389544 0.575501504,36.7718534 0.463157895,34.5403509 L0.463157895,27.2421053 L24.9824561,36.2245614 C24.2245258,39.6166572 24.2245258,43.13422 24.9824561,46.5263158" id="Path_32" stroke-width="2"></path>
                    <path d="M17.5017544,27.6210526 L31.3403509,31.7333333" id="Line_1"></path>
                    <path d="M20.6736842,20.1403509 L34.5263158,24.2526316" id="Line_2"></path>
                    <path d="M23.8596491,11.9017544 L37.7122807,16.0140351" id="Line_3"></path>
                </g>
            </g>
        </g>
    </g>
</svg>