<svg xmlns="http://www.w3.org/2000/svg" width="193px" height="54px" viewBox="0 0 175 45"><defs><linearGradient name="logoShadow" id="logo-1" x1="55.883%" x2="14.167%" y1="73.973%" y2="0%"><stop offset="0%" stop-color="#f05223"></stop> <stop offset="100%" stop-color="#000"></stop></linearGradient></defs> <g name="logo" fill="none" fill-rule="evenodd" stroke="none" stroke-width="1" transform="translate(-2, 0)"><path name="innerSide" pid="0" d="M25.5,44.9 L7.4,44.9 C6.1,44.9 5.3,43.7 5.3,42.7 C5.3,42.1 5.5,41.5 5.9,41.1 L13.8,33.2 L25.5,44.9 Z" fill="#f05223"></path> <path name="outerSide" pid="1" d="M7.4,44.9 C6,44.9 4.3,43.8 4.3,41.6 L4.3,17.2 C4.3,13.9 5,9.86230825 7.4,7.46230825 L15.3,0.4 L31,16.1 L6,41.1 C5.6,41.5 5.4,42 5.4,42.7 C5.3,43.7 6.1,44.9 7.4,44.9 Z" fill="#7800ff"></path></g> <g name="logo_text" transform="translate(32, 22) scale(1)" fill="#000000"><path d="M132.979819,14.877304 C132.901628,14.670584 129.479819,5.462424 129.479819,5.462424 L126.106415,5.462424 L126.106415,18.306424 L128.957053,18.306424 L128.957053,11.053744 C128.957053,11.053744 130.704819,15.904064 131.435351,17.998624 L131.550032,18.339864 L134.409606,18.339864 L134.524287,17.998624 C135.254819,15.904064 137.002585,11.053744 137.002585,11.053744 L137.002585,18.306424 L139.853223,18.306424 L139.853223,5.462424 L136.479074,5.462424 C136.479074,5.462424 133.058755,14.670584 132.979819,14.877304"></path> <polygon points="54.9890213 5.435976 44.7168936 5.435976 44.7168936 8.266216 48.3055106 8.266216 48.3055106 18.255656 51.4026383 18.255656 51.4026383 8.258616 54.9890213 8.258616"></polygon> <path d="M75.5760957,8.318656 C75.3951383,10.375216 75.1814149,12.855856 74.9624787,14.907096 C74.9006702,15.495336 74.7576915,16.087376 74.5603511,16.643696 C74.2192872,17.605856 73.5319468,18.218416 72.5266277,18.390936 C71.6940745,18.533816 70.8645,18.487456 70.0207766,18.272376 C70.1645,17.320856 70.3030106,16.398216 70.4452447,15.449736 C70.5785426,15.474056 70.691734,15.496856 70.8049255,15.515856 C71.5585426,15.645056 71.9234362,15.382096 71.9986489,14.604616 C72.2518404,11.982616 72.4923723,9.358336 72.7388617,6.735576 C72.7388617,6.735576 72.8148191,5.874496 72.857266,5.435976 L82.6736489,5.435976 L82.6736489,18.275416 L79.6085426,18.275416 L79.6085426,8.383256 C79.4134362,8.383256 76.5843936,8.390856 75.5195,8.377936 L75.5760957,8.318656 Z"></path> <path d="M0.332797872,18.30992 L0.332797872,0.13908 L8.40290426,0.13908 C10.4552447,0.13908 12.0823723,0.65816 13.2827979,1.69784 C14.4824787,2.73676 15.0826915,4.19444 15.0826915,6.06936 C15.0826915,7.94504 14.4824787,9.39816 13.2827979,10.42872 C12.0823723,11.45852 10.4552447,11.97456 8.40290426,11.97456 L3.68460638,11.97456 L3.68460638,18.30992 L0.332797872,18.30992 Z M3.68460638,3.20568 L3.68460638,8.90796 L8.3038617,8.90796 C9.44620213,8.90796 10.3025851,8.65792 10.8745,8.16012 C11.4449255,7.66232 11.730883,6.9654 11.730883,6.06936 C11.730883,5.17408 11.4449255,4.4726 10.8745,3.96568 C10.3025851,3.45952 9.44620213,3.20568 8.3038617,3.20568 L3.68460638,3.20568 Z"></path> <path d="M27.3965851,6.88028 C28.7623298,8.08032 29.4452021,9.74396 29.4452021,11.87272 C29.4452021,14.00148 28.7623298,15.66588 27.3965851,16.86516 C26.0308404,18.0652 24.4119043,18.66484 22.541266,18.66484 C20.6713723,18.66484 19.0569043,18.0652 17.7000957,16.86516 C16.3410532,15.66588 15.6626489,14.00148 15.6626489,11.87272 C15.6626489,9.74396 16.3410532,8.08032 17.7000957,6.88028 C19.0569043,5.681 20.6713723,5.08136 22.541266,5.08136 C24.4119043,5.08136 26.0308404,5.681 27.3965851,6.88028 M19.9840319,14.59656 C20.6959468,15.28208 21.5478617,15.62408 22.541266,15.62408 C23.5346702,15.62408 24.3910532,15.28208 25.1119043,14.59656 C25.831266,13.91332 26.1924362,13.00588 26.1924362,11.87272 C26.1924362,10.74108 25.831266,9.83744 25.1119043,9.1618 C24.3910532,8.4854 23.5346702,8.14796 22.541266,8.14796 C21.5478617,8.14796 20.6959468,8.4854 19.9840319,9.1618 C19.272117,9.83744 18.9154149,10.74108 18.9154149,11.87272 C18.9154149,13.00588 19.272117,13.91332 19.9840319,14.59656"></path> <path d="M40.7564574,13.241556 L43.3643298,14.964476 C42.1557128,17.431436 40.1845426,18.664916 37.4537979,18.664916 C35.5503936,18.664916 33.9686915,18.040196 32.7101809,16.789236 C31.4524149,15.539036 30.8231596,13.900476 30.8231596,11.872796 C30.8231596,9.862596 31.4687979,8.227076 32.7608191,6.969276 C34.0513511,5.710716 35.6166702,5.080676 37.4537979,5.080676 C38.844117,5.080676 40.0445426,5.385436 41.0535851,5.993436 C42.064117,6.601436 42.7916702,7.462516 43.2399681,8.577436 L40.6075213,10.352036 C39.9447553,8.882196 38.8850745,8.148036 37.4284787,8.148036 C36.4678404,8.148036 35.6702872,8.490036 35.0320957,9.174036 C34.3953936,9.858796 34.0759255,10.757876 34.0759255,11.872796 C34.0759255,13.005196 34.3901809,13.912636 35.0209255,14.597396 C35.6494362,15.281396 36.4522021,15.623396 37.4284787,15.623396 C38.2394362,15.623396 38.9022021,15.425036 39.4152872,15.028316 C39.9283723,14.630836 40.3751809,14.035756 40.7564574,13.241556"></path> <path d="M68.8223617,12.65818 L59.1132128,12.65818 C59.2115106,13.63858 59.5756596,14.41986 60.2049149,15.00278 C60.8341702,15.5857 61.6212979,15.87678 62.5655532,15.87678 C64.1040638,15.87678 65.2627872,15.09094 66.0417234,13.52002 L68.4500213,14.91386 C67.2577872,17.41426 65.2791702,18.66446 62.5141702,18.66446 C60.7098085,18.66446 59.1787447,18.03138 57.920234,16.7637 C56.6624681,15.49678 56.0339574,13.86658 56.0339574,11.8731 C56.0339574,9.87962 56.6714043,8.24866 57.9462979,6.98174 C59.2197021,5.71482 60.7932128,5.08098 62.6638511,5.08098 C64.4682128,5.08098 65.9456596,5.68442 67.0969362,6.89358 C68.2474681,8.10122 68.8223617,9.6425 68.8223617,11.51818 L68.8223617,12.65818 Z M62.5655532,7.56466 C61.7367234,7.56466 61.0121489,7.8223 60.3918298,8.33758 C59.770766,8.85286 59.3448085,9.49962 59.1132128,10.27634 L65.8667234,10.27634 C65.7177872,9.43122 65.3536383,8.7685 64.7750213,8.28742 C64.1949149,7.80558 63.4584255,7.56466 62.5655532,7.56466 Z"></path> <path d="M97.1231383,12.65818 L87.4139894,12.65818 C87.5130319,13.63858 87.8764362,14.41986 88.5071809,15.00278 C89.1349468,15.5857 89.9220745,15.87678 90.8663298,15.87678 C92.4048404,15.87678 93.5643085,15.09094 94.3425,13.52002 L96.7507979,14.91386 C95.5585638,17.41426 93.5799468,18.66446 90.8149468,18.66446 C89.0113298,18.66446 87.480266,18.03138 86.2217553,16.7637 C84.9632447,15.49678 84.334734,13.86658 84.334734,11.8731 C84.334734,9.87962 84.9721809,8.24866 86.2470745,6.98174 C87.5212234,5.71482 89.094734,5.08098 90.9646277,5.08098 C92.7689894,5.08098 94.2471809,5.68442 95.3977128,6.89358 C96.5482447,8.10122 97.1231383,9.6425 97.1231383,11.51818 L97.1231383,12.65818 Z M90.8663298,7.56466 C90.0375,7.56466 89.3144149,7.8223 88.6933511,8.33758 C88.0730319,8.85286 87.6455851,9.49962 87.4139894,10.27634 L94.1682447,10.27634 C94.0193085,9.43122 93.6559043,8.7685 93.0757979,8.28742 C92.4956915,7.80558 91.7599468,7.56466 90.8663298,7.56466 Z"></path> <path d="M122.396489,6.88028 C123.762234,8.08032 124.445106,9.74396 124.445106,11.87272 C124.445106,14.00148 123.762234,15.66588 122.396489,16.86516 C121.030745,18.0652 119.411064,18.66484 117.54117,18.66484 C115.671277,18.66484 114.056809,18.0652 112.7,16.86516 C111.340957,15.66588 110.663298,14.00148 110.663298,11.87272 C110.663298,9.74396 111.340957,8.08032 112.7,6.88028 C114.056809,5.681 115.671277,5.08136 117.54117,5.08136 C119.411064,5.08136 121.030745,5.681 122.396489,6.88028 M114.983936,14.59656 C115.695851,15.28208 116.547766,15.62408 117.54117,15.62408 C118.53383,15.62408 119.390957,15.28208 120.111809,14.59656 C120.83117,13.91332 121.19234,13.00588 121.19234,11.87272 C121.19234,10.74108 120.83117,9.83744 120.111809,9.1618 C119.390957,8.4854 118.53383,8.14796 117.54117,8.14796 C116.547766,8.14796 115.695851,8.4854 114.983936,9.1618 C114.272021,9.83744 113.915319,10.74108 113.915319,11.87272 C113.915319,13.00588 114.272021,13.91332 114.983936,14.59656"></path> <polygon points="111.311319 18.24836 107.534298 18.24836 102.020681 11.70932 101.976745 11.70932 101.976745 18.24836 98.9377021 18.24836 98.9377021 5.44388 101.976745 5.44388 101.976745 11.48284 102.020681 11.48284 107.121745 5.44388 110.746851 5.44388 105.385149 11.54972"></polygon></g></svg>