<?xml version="1.0" encoding="UTF-8"?>
<svg width="80px" height="80px" viewBox="0 0 80 80" version="1.1" xmlns="http://www.w3.org/2000/svg" xmlns:xlink="http://www.w3.org/1999/xlink">
    <!-- Generator: Sketch 52.4 (67378) - http://www.bohemiancoding.com/sketch -->
    <title>icon_LC_prava-i-lgoty_1 Copy</title>
    <desc>Created with Sketch.</desc>
    <g id="icons" stroke="none" stroke-width="1" fill="none" fill-rule="evenodd">
        <g id="icons_DSGN-1159-Copy" transform="translate(-1862.000000, -771.000000)">
            <g id="icon_LC_prava-i-lgoty_1-Copy" transform="translate(1862.000000, 771.000000)">
                <path d="M80,40 C80,62.0916364 62.0901818,80 40,80 C17.9083636,80 0,62.0916364 0,40 C0,17.9083636 17.9083636,0 40,0 C62.0901818,0 80,17.9083636 80,40" id="Fill-144" fill="#00CD9F" opacity="0.900000036"></path>
                <g id="icon_338" transform="translate(11.636364, 13.090909)" fill="#FFFFFF" fill-rule="nonzero">
                    <path d="M56.9984284,24.173451 C57.8925377,24.4660745 58.5196827,25.2049801 58.6747665,26.1185826 L58.6717568,26.3020608 C58.6593966,26.3627397 58.6389031,26.4901745 58.6177873,26.6767649 C58.5818012,26.9947575 58.5600989,27.356996 58.5600989,27.7558722 C58.5600989,28.9509582 58.5600989,28.9509582 58.5530472,29.2736532 C58.3979634,30.1872558 57.7708185,30.9261614 56.8599065,31.2239588 L53.0179719,32.3334167 C52.6363365,34.32431 52.0475369,36.1673915 51.2217657,37.8583081 L53.5789481,40.9445113 C54.1843924,41.6875715 54.2295277,42.7511428 53.7201708,43.5822487 L51.9965974,45.9979948 C51.3752523,46.76057 50.4277223,47.0565811 49.4933464,46.7505927 L45.7568885,45.4165579 C44.1975062,46.7993857 42.5149037,47.9762195 40.7981287,48.8544862 L40.9108026,52.7331695 C40.9108026,53.6587181 40.4206779,54.4206545 39.4584843,54.8853583 L36.5965313,55.7362872 C35.6722345,55.8875388 34.7705528,55.5656096 34.1591252,54.8131918 L31.9051678,51.6043118 C29.972127,51.9046775 27.9441474,51.9037227 25.912987,51.6020229 L23.636004,54.8416312 C23.0461075,55.5656096 22.1444258,55.8875388 21.1577195,55.7219185 L18.3185543,54.871685 C17.507822,54.5532819 16.9058577,53.6440031 16.9058577,52.7331695 L16.9058577,48.8587909 C15.2652637,48.0166895 13.7173867,46.8965634 12.0587809,45.4163191 L8.23593795,46.7731422 C7.25576881,46.9335367 6.39440774,46.7028867 5.8005595,45.9724207 L4.0769703,43.5527114 C3.58713267,42.7511428 3.63226789,41.6875715 4.23637784,40.9461561 L6.84438872,37.7175183 C5.99208799,35.7655672 5.38480878,33.9504009 5.04298219,32.2141321 L1.18338979,31.0992763 C0.289280443,30.8066528 -0.337864551,30.0677472 -0.5,29.0704668 L-0.5,27.6363636 C-0.5,26.4412776 -0.5,26.4412776 -0.492948296,26.1185826 C-0.337864551,25.2049801 0.289280443,24.4660745 1.20019243,24.1682771 L5.04212704,23.0588192 C5.42322553,21.0707265 6.01090581,19.2300302 6.83484956,17.5410649 L4.35943152,14.4477246 C3.75398718,13.7046644 3.70885195,12.641093 4.21820879,11.8099872 L5.94178223,9.39424103 C6.56312729,8.63166591 7.51065729,8.33565475 8.43243372,8.63733307 L12.1747777,9.8621247 C13.7360436,8.47672027 15.4210119,7.29776824 17.1402509,6.41824105 L17.027577,2.53955774 C17.027577,1.67660579 17.5602477,0.912226723 18.369263,0.435633634 L18.4798953,0.387368925 L21.3418483,-0.463559884 C22.2661451,-0.614811479 23.1678268,-0.292882307 23.7792544,0.45953548 L26.0332118,3.66841546 C27.9662526,3.36804973 29.9942322,3.36900458 32.0253926,3.67070436 L34.3023756,0.431096071 C34.8922721,-0.292882307 35.7939538,-0.614811479 36.7806601,-0.449191271 L39.6198253,0.401042278 C40.4305577,0.71944536 41.0325219,1.62872419 41.0323219,2.52541759 L41.1455899,6.52900743 C42.7892416,7.37153165 44.3395085,8.49286218 46.0008543,9.97550291 L49.7493845,8.63733307 C50.6711609,8.33565475 51.6186909,8.63166591 52.2595394,9.41981517 L53.9831286,11.8395245 C54.4729662,12.641093 54.427831,13.7046644 53.8251531,14.4442986 L51.3368019,17.5537717 C52.1894321,19.5062691 52.7969255,21.3219002 53.138836,23.0585952 L56.9984284,24.173451 Z M56.7041863,25.1290202 L52.5657307,23.9339342 C52.3829686,23.881157 52.2459877,23.7292426 52.212336,23.5420128 C51.8846924,21.7190867 51.2390694,19.788582 50.3002309,17.6816398 C50.2241056,17.5107994 50.2496937,17.3117569 50.3665547,17.165726 L53.0471455,13.8160592 C53.3780033,13.4099983 53.4035164,12.8088065 53.1493613,12.3905042 L51.4647948,10.0259064 C51.1005105,9.5788213 50.5823001,9.41693082 50.0730287,9.58341821 L46.0562923,11.0175214 C45.882662,11.079513 45.6890059,11.0409252 45.5523981,10.917116 C43.7783526,9.30927753 42.1583187,8.13724863 40.433901,7.29069938 C40.2672852,7.20890451 40.1596903,7.04154369 40.1544411,6.85600747 L40.0325219,2.53955774 C40.0325219,2.03467403 39.6771804,1.49792366 39.293893,1.34550577 L36.5567589,0.523314184 C35.9786919,0.428719516 35.4365065,0.622297036 35.0991479,1.03432201 L32.6647622,4.5000714 C32.554506,4.65703926 32.3641679,4.73709269 32.1748646,4.70611517 C30.0381842,4.35646956 27.9033385,4.35646956 25.8898493,4.70533777 C25.6991788,4.73837439 25.5065645,4.65842246 25.3953367,4.5000714 L22.9824821,1.06276142 C22.6235924,0.622297036 22.081407,0.428719516 21.5657495,0.508945571 L18.8272719,1.32725803 C18.3290503,1.63737446 18.0275703,2.08396954 18.0273655,2.52501392 L18.1490847,6.70781491 C18.1547847,6.90368836 18.0455395,7.08483667 17.8696365,7.17119078 C16.0588355,8.06014725 14.2714594,9.30940767 12.6294201,10.7976074 C12.4963464,10.9182136 12.3088119,10.9581851 12.1381254,10.902323 L8.12138903,9.58772836 C7.59951812,9.41693082 7.08130767,9.5788213 6.73652685,10.0003323 L5.05197607,12.3609669 C4.77830182,12.8088065 4.80381485,13.4099983 5.13743918,13.8194852 L7.81526345,17.165726 C7.93796894,17.3190602 7.95954907,17.5300281 7.87042944,17.7050302 C6.97373629,19.4658447 6.35213486,21.41303 5.96948221,23.5420128 C5.93583048,23.7292426 5.79884959,23.881157 5.61608752,23.9339342 L1.49443448,25.1238463 C0.956001471,25.3000643 0.586374758,25.7355605 0.5,26.2022604 L0.5,27.6363636 C0.5,28.8314496 0.5,28.8314496 0.492948296,28.986789 C0.586374758,29.5371668 0.956001471,29.972663 1.47763183,30.1437071 L5.61608752,31.338793 C5.79884959,31.3915703 5.93583048,31.5434847 5.96948221,31.7307145 C6.29712577,33.5536406 6.94274875,35.4841453 7.88158727,37.5910874 C7.95804717,37.7626788 7.93187523,37.9626478 7.81383136,38.1087825 L5.01295342,41.5761767 C4.68209557,41.9822376 4.65658254,42.5834294 4.91073757,43.0017316 L6.59530412,45.3663295 C6.91545453,45.7592492 7.41770085,45.8937377 7.98707021,45.8088177 L12.0038066,44.3747145 C12.1774369,44.3127229 12.371093,44.3513106 12.5077008,44.4751199 C14.2817463,46.0829583 15.9017802,47.2549872 17.6261979,48.1015365 C17.7973824,48.1855742 17.9058577,48.3596686 17.9058577,48.5503686 L17.9058577,52.7331695 C17.9058577,53.2380532 18.2611993,53.7748036 18.6444866,53.9272215 L21.3816207,54.7494131 C21.9596877,54.8440078 22.5018731,54.6504302 22.8392317,54.2384053 L25.2736174,50.7726559 C25.3838736,50.615688 25.5742117,50.5356346 25.763515,50.5666121 C27.9001954,50.9162577 30.0350411,50.9162577 32.0485303,50.5673895 C32.2392008,50.5343529 32.4318151,50.6143048 32.5430429,50.7726559 L34.9558975,54.2099659 C35.3147872,54.6504302 35.8569727,54.8440078 36.3726301,54.7637817 L39.0949889,53.9574579 C39.6425225,53.6886633 39.9108026,53.2716013 39.9110142,52.7477133 L39.7892949,48.5649124 C39.783595,48.3690389 39.8928401,48.1878906 40.0687432,48.1015365 C41.8795441,47.21258 43.6669202,45.9633196 45.3089595,44.4751199 C45.4455673,44.3513106 45.6392234,44.3127229 45.8128537,44.3747145 L49.8169906,45.8045075 C50.3388615,45.9753051 50.8570719,45.8134146 51.2018528,45.3919036 L52.8864035,43.031269 C53.1600778,42.5834294 53.1345648,41.9822376 52.7939891,41.5638603 L50.2378841,38.2176195 C50.1211481,38.0647985 50.102402,37.8585706 50.1896695,37.6872057 C51.0863626,35.9263912 51.707964,33.9792059 52.0906167,31.8502231 C52.1242684,31.6629933 52.2612493,31.5110789 52.4440114,31.4583016 L56.5656644,30.2683896 C57.1040974,30.0921716 57.4737241,29.6566754 57.5600989,29.1899754 L57.5600989,27.7558722 C57.5600989,27.3181882 57.5840413,26.9185595 57.6241298,26.5643162 C57.6409801,26.4154176 57.6581241,26.2950002 57.6730642,26.2054429 C57.5586521,25.6932894 57.2001164,25.2916371 56.7041863,25.1290202 Z" id="Path"></path>
                    <path d="M29.0909091,47.2954545 C18.233493,47.2954545 9.43181818,38.4937797 9.43181818,27.6363636 C9.43181818,16.7789475 18.233493,7.97727273 29.0909091,7.97727273 C39.9483252,7.97727273 48.75,16.7789475 48.75,27.6363636 C48.75,38.4937797 39.9483252,47.2954545 29.0909091,47.2954545 Z M29.0909091,45.7954545 C39.1198981,45.7954545 47.25,37.6653526 47.25,27.6363636 C47.25,17.6073747 39.1198981,9.47727273 29.0909091,9.47727273 C19.0619201,9.47727273 10.9318182,17.6073747 10.9318182,27.6363636 C10.9318182,37.6653526 19.0619201,45.7954545 29.0909091,45.7954545 Z" id="Oval"></path>
                    <path d="M15.2932963,39.3295846 C15.2618948,39.7426062 14.9016187,40.0519705 14.4885972,40.020569 C14.0755756,39.9891675 13.7662114,39.6288915 13.7976128,39.2158699 C13.9547399,37.1491871 15.0766246,35.4255421 16.9458828,34.4809062 L26.180444,30.3598794 C28.1177248,29.6060054 30.2138637,29.6060054 32.0350897,30.3739544 L41.2926148,34.5091331 C43.0496358,35.4787832 44.2334179,37.2325713 44.3842054,39.2158699 C44.4156068,39.6288915 44.1062426,39.9891675 43.693221,40.020569 C43.2801994,40.0519705 42.9199234,39.7426062 42.8885219,39.3295846 C42.7770744,37.8637218 41.8927588,36.5535972 40.6245297,35.8506446 L31.4380413,31.7499225 C29.9975528,31.1426577 28.3051081,31.1426577 26.7581341,31.7436927 L17.5901415,35.8350137 C16.2283918,36.5238989 15.4111471,37.7795001 15.2932963,39.3295846 Z" id="Path"></path>
                    <path d="M34.1590909,22.250225 C34.1590909,19.9959022 32.2725628,18.2045455 29.9521531,18.2045455 L29.6842105,18.2045455 C27.3285295,18.2045455 25.4772727,20.0293705 25.4772727,22.250225 L25.4772727,25.749775 C25.4772727,28.0040978 27.3638008,29.7954545 29.6842105,29.7954545 L29.8181818,29.7954545 C32.1738628,29.7954545 34.0251196,27.9706295 34.0251196,25.749775 C34.0251196,25.5907153 34.0746344,25.4432205 34.1590909,25.3218634 L34.1590909,22.250225 Z M29.8181818,31.2954545 L29.6842105,31.2954545 C26.5522414,31.2954545 23.9772727,28.8503876 23.9772727,25.749775 L23.9772727,22.250225 C23.9772727,19.1960765 26.5048924,16.7045455 29.6842105,16.7045455 L29.9521531,16.7045455 C33.0841222,16.7045455 35.6590909,19.1496124 35.6590909,22.250225 L35.6590909,25.749775 C35.6590909,25.9202512 35.6022132,26.0774429 35.5063993,26.2034086 C35.2707443,29.046833 32.8385439,31.2954545 29.8181818,31.2954545 Z" id="Path"></path>
                </g>
            </g>
        </g>
    </g>
</svg>