<?xml version="1.0" encoding="UTF-8"?>
<svg width="26px" height="26px" viewBox="0 0 26 26" version="1.1" xmlns="http://www.w3.org/2000/svg" xmlns:xlink="http://www.w3.org/1999/xlink">
    <!-- Generator: Sketch 53.1 (72631) - https://sketchapp.com -->
    <title>App/SMM/white/vk</title>
    <desc>Created with Sketch.</desc>
    <g id="App/SMM/white/vk" stroke="none" stroke-width="1" fill="none" fill-rule="evenodd">
        <path d="M12.3998949,19.5366094 L13.810004,19.5366094 C13.810004,19.5366094 14.2358499,19.4905734 14.4536579,19.2612182 C14.6537785,19.0503435 14.6473773,18.6544996 14.6473773,18.6544996 C14.6473773,18.6544996 14.6197512,16.8011779 15.4978899,16.5280968 C16.3637316,16.2591407 17.4753442,18.3193771 18.6534953,19.1115599 C19.5444363,19.7108533 20.2216121,19.5796754 20.2216121,19.5796754 L23.372164,19.5364444 C23.372164,19.5364444 25.0201268,19.4367822 24.2386795,18.1675736 C24.1746678,18.0639513 23.7833546,17.2287025 21.8960219,15.5126639 C19.920252,13.7165985 20.1852265,14.0071701 22.5649435,10.9003152 C24.0141334,9.00838265 24.5934387,7.85319167 24.4123531,7.35867555 C24.2398586,6.88742495 23.1738963,7.01183775 23.1738963,7.01183775 L19.6266407,7.03328823 C19.6266407,7.03328823 19.3635192,6.99814244 19.1686206,7.11249002 C18.9779333,7.22419753 18.8556374,7.4852334 18.8556374,7.4852334 C18.8556374,7.4852334 18.2940194,8.94931133 17.5454201,10.1944293 C15.9658487,12.8216184 15.3341549,12.9607165 15.0759184,12.7973629 C14.4752197,12.4170293 14.6253102,11.2700885 14.6253102,10.4549702 C14.6253102,7.90879792 15.0196556,6.84716405 13.8575074,6.57226787 C13.4719215,6.48118582 13.1879119,6.42079446 12.2017957,6.41105924 C10.9360498,6.39851896 9.86486549,6.41485433 9.25827096,6.70592087 C8.85466072,6.89947023 8.543362,7.33078993 8.7330386,7.35570549 C8.96752335,7.38623117 9.49831462,7.49612364 9.77979738,7.87117708 C10.1434846,8.35579298 10.1306822,9.44349744 10.1306822,9.44349744 C10.1306822,9.44349744 10.3395623,12.4407898 9.64284616,12.8130382 C9.16478028,13.068464 8.50882941,12.5470522 7.10057331,10.1634086 C6.37909473,8.94238117 5.83432198,7.59265081 5.83432198,7.59265081 C5.83432198,7.59265081 5.72937658,7.34052514 5.5420583,7.20538711 C5.31481698,7.04186843 4.9971171,6.99005726 4.9971171,6.99005726 L1.62606194,7.01167275 C1.62606194,7.01167275 1.12003308,7.02553306 0.934230865,7.24102791 C0.768811309,7.43292722 0.921091634,7.82926614 0.921091634,7.82926614 C0.921091634,7.82926614 3.56005576,13.8771471 6.54838868,16.9249307 C9.28876072,19.7199286 12.3998949,19.5366094 12.3998949,19.5366094" id="Shape-Copy-2" fill="#FFFFFF" fill-rule="nonzero"></path>
    </g>
</svg>