<?xml version="1.0" encoding="UTF-8"?>
<svg width="26px" height="26px" viewBox="0 0 26 26" version="1.1" xmlns="http://www.w3.org/2000/svg" xmlns:xlink="http://www.w3.org/1999/xlink">
    <!-- Generator: Sketch 53.1 (72631) - https://sketchapp.com -->
    <title>App/SMM/white/instagram</title>
    <desc>Created with Sketch.</desc>
    <g id="App/SMM/white/instagram" stroke="none" stroke-width="1" fill="none" fill-rule="evenodd">
        <path d="M13.1390264,1.00766638 C9.84228883,1.00766638 9.42885346,1.02164031 8.13414541,1.08071627 C6.8420394,1.13964768 5.95965845,1.3448716 5.18747874,1.64497364 C4.38927863,1.95514654 3.71226616,2.37022024 3.03742205,3.04506434 C2.36252976,3.71995663 1.94750425,4.39692092 1.63728316,5.19512103 C1.33718112,5.96730074 1.13200539,6.84968169 1.07302579,8.1417877 C1.01394983,9.43654393 1.00002409,9.84988294 1.00002409,13.1466687 C1.00002409,16.4434544 1.01394983,16.8568416 1.07302579,18.1515978 C1.13200539,19.4436556 1.33718112,20.3260848 1.63728316,21.0982163 C1.94750425,21.8964164 2.36252976,22.5734289 3.03742205,23.248273 C3.71226616,23.9231652 4.38927863,24.3381908 5.18747874,24.64846 C5.95965845,24.9485139 6.8420394,25.1537378 8.13414541,25.2127174 C9.42885346,25.2717452 9.84228883,25.2857191 13.1390264,25.2857191 C16.4358121,25.2857191 16.8491511,25.2717452 18.1439073,25.2127174 C19.4360133,25.1537378 20.3183943,24.9485139 21.090574,24.64846 C21.8888223,24.3381908 22.5657866,23.9231652 23.2406307,23.248273 C23.915523,22.5734289 24.3305485,21.8964646 24.6407696,21.0982163 C24.9408716,20.3260848 25.1460955,19.4436556 25.2050269,18.1515978 C25.2641029,16.8568416 25.2780768,16.4434544 25.2780768,13.1466687 C25.2780768,9.84993112 25.2641029,9.43654393 25.2050269,8.1417877 C25.1460955,6.84968169 24.9408716,5.96730074 24.6407696,5.19512103 C24.3305485,4.39692092 23.915523,3.71995663 23.2406307,3.04506434 C22.5657866,2.37022024 21.8888223,1.95514654 21.090574,1.64497364 C20.3183943,1.3448716 19.4360133,1.13964768 18.1439073,1.08071627 C16.8491511,1.02164031 16.4358121,1.00766638 13.1390264,1.00766638 M13.1390264,3.19487443 C16.3803019,3.19487443 16.7641993,3.20721003 18.0442106,3.26561139 C19.2277537,3.31962783 19.870506,3.51738294 20.2982526,3.68362443 C20.864871,3.90383418 21.2692956,4.16688124 21.6940547,4.59164031 C22.1188138,5.01644756 22.3818608,5.42082398 22.6021188,5.98744246 C22.7683121,6.41518906 22.9660672,7.05794133 23.0200836,8.24148441 C23.0784368,9.52149575 23.0908206,9.90544133 23.0908206,13.1466687 C23.0908206,16.3879442 23.0784368,16.7718897 23.0200836,18.0518529 C22.9660672,19.2354442 22.7683121,19.8781964 22.6021188,20.305943 C22.3818608,20.8725133 22.1188138,21.2769379 21.6940547,21.701697 C21.2692956,22.1265043 20.864871,22.3895513 20.2982526,22.6097611 C19.870506,22.7759544 19.2277537,22.9737577 18.0442106,23.0277259 C16.764392,23.0861273 16.3805428,23.0985111 13.1390264,23.0985111 C9.89750992,23.0985111 9.51366071,23.0861273 8.23384212,23.0277259 C7.05029904,22.9737577 6.40749858,22.7759544 5.97975198,22.6097611 C5.41318169,22.3895513 5.00875709,22.1265043 4.58399802,21.701697 C4.15923895,21.2769379 3.89614371,20.8725133 3.67593396,20.305943 C3.50974065,19.8781964 3.31198554,19.2354442 3.2579691,18.0519011 C3.19956774,16.7718897 3.18723214,16.3879442 3.18723214,13.1466687 C3.18723214,9.90544133 3.19956774,9.52149575 3.2579691,8.24148441 C3.31198554,7.05794133 3.50974065,6.41518906 3.67593396,5.98744246 C3.89614371,5.42082398 4.15923895,5.01644756 4.58399802,4.59168849 C5.00875709,4.16688124 5.41318169,3.90383418 5.97975198,3.68362443 C6.40749858,3.51738294 7.05029904,3.31962783 8.23379393,3.26561139 C9.51385346,3.20721003 9.89775085,3.19487443 13.1390264,3.19487443" id="Fill-1" fill="#FFFFFF"></path>
        <path d="M13.0344627,17.0459209 C10.8189958,17.0459209 9.02295667,15.2498817 9.02295667,13.0344149 C9.02295667,10.818948 10.8189958,9.02295667 13.0344627,9.02295667 C15.2499295,9.02295667 17.0459687,10.818948 17.0459687,13.0344149 C17.0459687,15.2498817 15.2499295,17.0459209 13.0344627,17.0459209 M13.0344627,6.85459184 C9.62142938,6.85459184 6.85459184,9.62138161 6.85459184,13.0344149 C6.85459184,16.4474959 9.62142938,19.2142857 13.0344627,19.2142857 C16.4474959,19.2142857 19.2142857,16.4474959 19.2142857,13.0344149 C19.2142857,9.62138161 16.4474959,6.85459184 13.0344627,6.85459184" id="Fill-4" fill="#FFFFFF"></path>
        <path d="M20.9489796,6.74617347 C20.9489796,7.52460515 20.3179829,8.15561224 19.5395641,8.15561224 C18.7611453,8.15561224 18.130102,7.52460515 18.130102,6.74617347 C18.130102,5.96774179 18.7611453,5.33673469 19.5395641,5.33673469 C20.3179829,5.33673469 20.9489796,5.96774179 20.9489796,6.74617347" id="Fill-6" fill="#FFFFFF"></path>
    </g>
</svg>