<?xml version="1.0" encoding="UTF-8"?>
<svg width="26px" height="26px" viewBox="0 0 26 26" version="1.1" xmlns="http://www.w3.org/2000/svg" xmlns:xlink="http://www.w3.org/1999/xlink">
    <!-- Generator: Sketch 53.1 (72631) - https://sketchapp.com -->
    <title>App/SMM/white/youtube</title>
    <desc>Created with Sketch.</desc>
    <defs>
        <polygon id="path-1" points="23.5102041 12.5514546 23.5102041 5 2 5 2 12.5514546 2 20.1029092 23.5102041 20.1029092"></polygon>
    </defs>
    <g id="App/SMM/white/youtube" stroke="none" stroke-width="1" fill="none" fill-rule="evenodd">
        <mask id="mask-2" fill="white">
            <use xlink:href="#path-1"></use>
        </mask>
        <g id="Clip-2"></g>
        <path d="M10.5551948,15.7387775 L10.5551948,9.36413178 L16.17718,12.5515764 L10.5551948,15.7387775 Z M23.0606897,7.358368 C22.8133224,6.43002627 22.0844198,5.69899674 21.1589921,5.45089492 C19.4815628,5 12.755102,5 12.755102,5 C12.755102,5 6.02864123,5 4.35121197,5.45089492 C3.42578432,5.69899674 2.69688173,6.43002627 2.44951438,7.358368 C2,9.04088081 2,12.5514546 2,12.5514546 C2,12.5514546 2,16.0619066 2.44951438,17.7445413 C2.69688173,18.672883 3.42578432,19.4039125 4.35121197,19.6521361 C6.02864123,20.1029092 12.755102,20.1029092 12.755102,20.1029092 C12.755102,20.1029092 19.4815628,20.1029092 21.1589921,19.6521361 C22.0844198,19.4039125 22.8133224,18.672883 23.0606897,17.7445413 C23.5102041,16.0619066 23.5102041,12.5514546 23.5102041,12.5514546 C23.5102041,12.5514546 23.5102041,9.04088081 23.0606897,7.358368 L23.0606897,7.358368 Z" id="Fill-1" fill="#FFFFFF" mask="url(#mask-2)"></path>
    </g>
</svg>