<svg xmlns="http://www.w3.org/2000/svg" viewBox="0 0 163 47">
    <path d="M163 42.29c0 2.602-2.098 4.71-4.694 4.71H4.7C2.106 47 0 44.892 0 42.29V4.716C0 2.116 2.106 0 4.7 0h153.605C160.902 0 163 2.116 163 4.717V42.29z"></path>
    <path d="M35.723 23.084c-.036-3.937 3.224-5.853 3.373-5.942-1.846-2.692-4.708-3.06-5.713-3.09-2.403-.252-4.735 1.44-5.96 1.44-1.247 0-3.133-1.415-5.164-1.373-2.62.04-5.07 1.55-6.41 3.9-2.77 4.79-.71 11.83 1.95 15.71 1.32 1.9 2.87 4.01 4.9 3.94 1.98-.08 2.72-1.27 5.12-1.27 2.37 0 3.07 1.26 5.14 1.22 2.13-.04 3.47-1.91 4.75-3.83 1.53-2.18 2.15-4.32 2.17-4.43-.05-.02-4.14-1.58-4.18-6.3zm-3.91-11.58c1.068-1.335 1.798-3.152 1.596-4.996-1.55.07-3.48 1.07-4.6 2.376-.99 1.15-1.87 3.037-1.64 4.81 1.73.13 3.52-.875 4.63-2.19zm32.642 25.9H61.68l-1.52-4.776h-5.28l-1.448 4.776h-2.7l5.233-16.26h3.233l5.26 16.26zm-4.752-6.78l-1.375-4.246c-.145-.433-.418-1.455-.82-3.063h-.05c-.16.692-.416 1.713-.77 3.063l-1.35 4.246h4.365zm18.213.773c0 1.994-.54 3.57-1.617 4.728-.97 1.03-2.17 1.544-3.6 1.544-1.55 0-2.66-.56-3.33-1.67h-.05v6.17h-2.6V29.54c0-1.254-.04-2.54-.1-3.86h2.29l.14 1.858h.05c.87-1.4 2.18-2.1 3.95-2.1 1.38 0 2.54.547 3.46 1.64.92 1.095 1.38 2.534 1.38 4.32zm-2.654.096c0-1.14-.257-2.082-.772-2.823-.563-.772-1.32-1.158-2.268-1.158-.642 0-1.226.215-1.748.64-.523.427-.865.985-1.025 1.677-.09.32-.13.58-.13.79v1.95c0 .85.26 1.57.78 2.16.52.59 1.2.88 2.04.88.98 0 1.74-.38 2.29-1.14.54-.76.82-1.76.82-2.99zm16.138-.096c0 1.994-.538 3.57-1.617 4.728-.964 1.03-2.163 1.544-3.593 1.544-1.545 0-2.654-.56-3.328-1.67h-.05v6.17H80.21V29.54c0-1.254-.033-2.54-.097-3.86h2.292l.146 1.858h.05c.87-1.4 2.19-2.1 3.96-2.1 1.38 0 2.54.547 3.46 1.64.93 1.095 1.39 2.534 1.39 4.32zm-2.653.096c0-1.14-.258-2.082-.774-2.823-.563-.772-1.317-1.158-2.266-1.158-.644 0-1.227.215-1.75.64-.522.427-.863.985-1.023 1.677-.08.32-.12.58-.12.79v1.95c0 .85.26 1.57.78 2.16.524.58 1.203.88 2.04.88.982 0 1.746-.38 2.292-1.14.547-.76.82-1.76.82-2.99zm17.73 1.35c0 1.384-.48 2.51-1.444 3.378-1.06.95-2.534 1.43-4.43 1.43-1.748 0-3.15-.33-4.213-1.01l.604-2.17c1.144.7 2.398 1.04 3.765 1.04.98 0 1.74-.22 2.29-.66.54-.44.82-1.03.82-1.77 0-.66-.23-1.21-.68-1.66-.45-.45-1.2-.87-2.25-1.25-2.85-1.06-4.27-2.61-4.27-4.66 0-1.33.5-2.43 1.49-3.28.99-.85 2.32-1.28 3.98-1.28 1.48 0 2.71.26 3.69.77l-.65 2.13c-.92-.5-1.96-.75-3.12-.75-.92 0-1.64.23-2.15.68-.44.4-.65.89-.65 1.47 0 .64.24 1.18.74 1.59.43.39 1.22.81 2.36 1.26 1.4.56 2.42 1.22 3.08 1.98.66.75.99 1.69.99 2.82zm8.613-5.21h-2.87v5.694c0 1.447.504 2.17 1.52 2.17.464 0 .85-.04 1.156-.12l.072 1.978c-.514.192-1.19.288-2.026.288-1.03 0-1.833-.314-2.413-.94-.58-.63-.87-1.682-.87-3.16v-5.91h-1.71v-1.956h1.71V23.53l2.56-.772v2.92h2.87v1.956zm12.954 3.812c0 1.802-.515 3.282-1.544 4.44-1.08 1.19-2.51 1.784-4.296 1.784-1.72 0-3.09-.58-4.11-1.72-1.022-1.14-1.533-2.58-1.533-4.32 0-1.82.53-3.31 1.58-4.47 1.06-1.16 2.48-1.74 4.26-1.74 1.72 0 3.11.57 4.15 1.71 1 1.11 1.5 2.54 1.5 4.29zm-2.702.084c0-1.09-.23-2.01-.7-2.79-.545-.94-1.326-1.4-2.338-1.4-1.047 0-1.842.47-2.388 1.4-.468.77-.7 1.71-.7 2.83 0 1.08.232 2.01.7 2.78.563.93 1.35 1.4 2.365 1.4 1 0 1.78-.48 2.34-1.43.48-.79.73-1.73.73-2.81zm11.168-3.56c-.256-.05-.53-.08-.82-.08-.916 0-1.625.34-2.123 1.04-.434.61-.65 1.38-.65 2.31v6.16h-2.605l.024-8.04c0-1.35-.033-2.58-.097-3.69h2.26l.09 2.24h.07c.27-.77.71-1.39 1.3-1.86.58-.42 1.21-.63 1.88-.63.24 0 .45.01.65.04v2.48zm11.65 3.01c0 .46-.03.86-.094 1.18h-7.815c.04 1.16.41 2.04 1.14 2.65.66.54 1.51.82 2.56.82 1.16 0 2.22-.19 3.17-.56l.41 1.81c-1.1.48-2.41.72-3.93.72-1.81 0-3.24-.54-4.28-1.61-1.03-1.07-1.55-2.51-1.55-4.31 0-1.77.48-3.24 1.45-4.41 1.01-1.26 2.38-1.88 4.1-1.88 1.69 0 2.97.62 3.84 1.88.69.99 1.04 2.22 1.04 3.69zm-2.483-.68c.017-.77-.153-1.44-.506-2-.45-.73-1.14-1.09-2.07-1.09-.85 0-1.54.35-2.07 1.06-.43.56-.69 1.24-.77 2.02h5.43zM51.967 7.8c.278-.167.59-.307.942-.422.35-.114.76-.172 1.23-.172.76 0 1.37.182 1.81.545s.66.86.66 1.47c0 .49-.15.9-.45 1.24s-.68.56-1.14.67v.04c.25.04.49.11.71.21.23.1.42.23.59.4.17.17.3.36.4.58.1.22.15.47.15.74 0 .45-.09.82-.27 1.12-.18.3-.41.55-.7.74-.29.19-.61.33-.97.41-.36.08-.71.13-1.07.13-.38 0-.76-.04-1.13-.12-.37-.08-.72-.21-1.03-.39l.32-.98c.2.1.47.2.79.3.32.1.65.15.98.15.55 0 .97-.124 1.266-.37.297-.25.446-.58.446-.99 0-.274-.06-.5-.18-.68-.12-.18-.277-.32-.46-.42-.19-.105-.4-.175-.64-.215-.23-.04-.46-.06-.69-.06H53v-.977h.53c.24 0 .47-.03.68-.094.21-.06.39-.15.543-.263.15-.11.27-.25.36-.41.083-.155.13-.333.13-.53 0-.355-.13-.633-.38-.835-.25-.2-.59-.305-1.02-.305-.29 0-.588.042-.88.14-.29.09-.554.2-.784.31l-.28-.91zm10.18 7.525l-.095-.664h-.035c-.386.53-.947.8-1.683.8-.26 0-.497-.04-.71-.13-.215-.09-.4-.2-.558-.35-.16-.15-.28-.32-.368-.53-.086-.2-.13-.43-.13-.67 0-.72.293-1.26.878-1.61s1.414-.54 2.49-.54v-.11c0-.76-.4-1.13-1.196-1.13-.568 0-1.07.15-1.502.43l-.26-.84c.53-.33 1.188-.49 1.976-.49 1.506 0 2.26.8 2.26 2.38V14c0 .59.028 1.05.083 1.374h-1.15zm-.178-2.868c-.72 0-1.25.09-1.6.273-.35.182-.53.48-.53.89 0 .3.08.525.24.675s.37.225.62.225c.16 0 .32-.03.47-.09.15-.058.28-.14.39-.243.11-.102.2-.227.28-.373.07-.147.1-.302.1-.468v-.89zm7.42-2.892v1.055h-2.4v4.705h-1.28v-5.76h3.67zm7.32 2.81c0 .457-.07.876-.19 1.255-.13.38-.3.704-.53.972-.23.268-.5.48-.81.628-.32.15-.66.226-1.04.226-.76 0-1.31-.273-1.64-.818h-.03v3.034H71.2v-6.21c0-.308-.003-.62-.01-.93-.01-.313-.02-.636-.036-.968h1.125l.07.913h.02c.42-.687 1.07-1.03 1.94-1.03.34 0 .65.07.94.21.29.144.54.343.75.6.21.256.38.564.5.925.12.36.18.757.18 1.192zm-1.3.047c0-.285-.04-.547-.11-.788-.07-.24-.17-.446-.3-.616-.13-.17-.29-.304-.48-.403-.19-.1-.4-.148-.63-.148-.18 0-.36.04-.54.12-.18.077-.33.184-.46.32-.13.133-.23.296-.31.485-.08.19-.12.39-.12.605v.96c0 .213.03.41.1.593.07.182.16.34.28.474.12.134.27.24.44.314.17.075.35.112.56.112.48 0 .86-.183 1.13-.55.27-.37.4-.862.4-1.478zm8.17-2.857l-1.45 3.995c-.35.947-.69 1.723-1.02 2.328-.33.605-.64 1.045-.94 1.322-.44.395-.92.637-1.41.722l-.31-1.077c.33-.087.65-.257.95-.51.3-.253.54-.568.72-.948.06-.126.09-.213.09-.26 0-.048-.02-.138-.07-.273l-2.08-5.297h1.41l1.09 3.212c.06.15.11.32.17.5l.18.63h.02c.04-.13.08-.29.13-.48.04-.2.11-.42.19-.67l.97-3.2h1.37zm2.22 2.395h.59c.43 0 .77-.08 1.01-.238.23-.16.35-.352.35-.582 0-.237-.1-.426-.31-.568-.2-.142-.48-.214-.84-.214-.23 0-.46.038-.7.113-.24.08-.45.17-.65.28l-.33-.83c.33-.18.66-.3.99-.37.33-.06.65-.1.99-.1.26 0 .52.03.79.08.26.05.49.14.7.26.2.12.37.28.5.48.13.2.2.44.2.74 0 .19-.04.35-.11.48-.07.14-.17.26-.29.37-.12.11-.25.2-.4.26-.15.07-.3.12-.44.15v.04c.18.03.37.08.55.15.17.07.33.17.48.28.14.12.25.25.34.42.08.16.12.35.12.55 0 .34-.08.63-.247.86-.16.23-.374.41-.63.55-.25.14-.536.23-.84.29-.31.06-.61.09-.9.09-.36 0-.71-.04-1.058-.11-.35-.07-.66-.19-.94-.35l.34-.84c.2.11.44.2.7.28s.532.11.81.11c.432 0 .77-.08 1-.25.23-.17.35-.38.35-.63 0-.17-.04-.31-.12-.42-.08-.12-.19-.21-.33-.28-.14-.07-.31-.12-.5-.15-.19-.02-.397-.04-.617-.04h-.6V12zm6.83-2.395v2.038c0 .467-.01.886-.03 1.256s-.04.76-.06 1.17l.02.02.44-.89.44-.89 1.43-2.72h1.66v5.76h-1.21v-2.04c0-.43.01-.85.03-1.28l.06-1.29h-.06c-.14.35-.27.66-.41.92-.14.26-.27.53-.4.8-.25.47-.49.95-.73 1.42s-.5.96-.77 1.46H91.4V9.56h1.228zm10.66 0v1.055h-1.76v4.705h-1.26V10.62h-1.74V9.565h4.75zm6.53 2.608c0 .11-.01.215-.02.314-.01.1-.02.188-.03.266h-3.84c.01.545.18.966.51 1.262.33.296.76.445 1.3.445.56 0 1.08-.09 1.55-.273l.2.89c-.55.237-1.19.355-1.94.355-.45 0-.85-.07-1.21-.207-.36-.138-.66-.334-.9-.587-.24-.253-.43-.557-.56-.912-.13-.356-.19-.754-.19-1.197 0-.45.06-.86.19-1.23.13-.38.31-.7.55-.98.24-.28.52-.5.86-.65.33-.16.71-.24 1.12-.24.36 0 .69.06.99.19.29.13.54.31.75.55.21.24.37.53.48.86.11.33.16.71.16 1.12zm-1.22-.33c0-.452-.11-.818-.33-1.097-.22-.28-.53-.422-.94-.422-.38 0-.69.142-.95.426s-.41.648-.45 1.092h2.66zm6.37-2.23c.23-.04.52-.07.88-.095.35-.025.72-.036 1.09-.036.23 0 .5.015.8.042.29.027.58.09.84.19.27.098.49.246.67.444.18.198.27.465.27.805 0 .175-.04.33-.1.468-.07.14-.15.26-.26.37-.11.1-.23.19-.37.26-.14.07-.28.12-.44.15l.01.04c.42.07.76.22 1.02.45s.39.55.39.95c0 .41-.11.73-.33.96-.22.24-.49.42-.82.54-.32.12-.66.2-1.023.23-.36.03-.68.05-.965.05-.32 0-.63-.01-.937-.02-.306-.01-.56-.03-.765-.05V9.62zm1.23 2.3h.65c.19 0 .38-.014.56-.042.18-.02.33-.07.47-.13.13-.06.24-.13.31-.23s.11-.22.11-.36c0-.26-.11-.45-.33-.57-.22-.12-.56-.18-1.03-.18-.14 0-.25.01-.35.01l-.41.04v1.48zm0 2.547c.16.016.29.027.4.035.11.01.23.012.37.012.17 0 .35-.01.53-.035.18-.023.35-.068.5-.136.15-.066.27-.156.36-.27.09-.114.14-.266.14-.454 0-.33-.15-.557-.44-.683-.29-.13-.69-.19-1.19-.19h-.68v1.72z" fill="#fff"></path>
</svg>
