<svg xmlns="http://www.w3.org/2000/svg" viewBox="0 0 163 47">
    <path d="M156.963 47H6.037C2.717 47 0 44.356 0 41.125V5.875C0 2.645 2.717 0 6.037 0h150.926C160.283 0 163 2.644 163 5.875v35.25c0 3.23-2.717 5.875-6.037 5.875z"></path>
    <path d="M83.277 25.065c-2.875 0-5.218 2.186-5.218 5.2 0 2.992 2.34 5.197 5.21 5.197s5.22-2.206 5.22-5.198c0-3.013-2.35-5.2-5.22-5.2zm0 8.35c-1.575 0-2.934-1.3-2.934-3.15 0-1.872 1.36-3.152 2.934-3.152s2.934 1.28 2.934 3.15c0 1.85-1.35 3.15-2.93 3.15zm-11.383-8.35c-2.875 0-5.218 2.186-5.218 5.2 0 2.992 2.343 5.197 5.218 5.197s5.218-2.206 5.218-5.198c0-3.013-2.343-5.2-5.218-5.2zm0 8.35c-1.575 0-2.934-1.3-2.934-3.15 0-1.872 1.36-3.152 2.934-3.152 1.575 0 2.934 1.28 2.934 3.15 0 1.85-1.36 3.15-2.934 3.15zm-13.54-6.755v2.206h5.276c-.157 1.24-.57 2.146-1.2 2.776-.77.768-1.97 1.615-4.077 1.615-3.25 0-5.79-2.62-5.79-5.868s2.54-5.87 5.79-5.87c1.753 0 3.033.69 3.978 1.57l1.56-1.56c-1.32-1.26-3.07-2.23-5.53-2.23-4.45 0-8.19 3.62-8.19 8.07s3.74 8.07 8.19 8.07c2.41 0 4.22-.79 5.63-2.27 1.46-1.46 1.91-3.507 1.91-5.16 0-.517-.04-.99-.12-1.38h-7.42zm55.376 1.713c-.433-1.16-1.752-3.308-4.45-3.308-2.678 0-4.903 2.107-4.903 5.2 0 2.913 2.205 5.197 5.16 5.197 2.382 0 3.76-1.457 4.33-2.304l-1.77-1.18c-.592.865-1.4 1.436-2.56 1.436-1.163 0-1.99-.532-2.52-1.575l6.95-2.88-.237-.59zm-7.088 1.733c-.06-2.008 1.555-3.032 2.717-3.032.9 0 1.67.453 1.92 1.102l-4.65 1.93zm-5.652 5.04h2.284v-15.28h-2.284v15.28zm-3.74-8.92h-.08c-.512-.61-1.496-1.16-2.737-1.16-2.6 0-4.98 2.283-4.98 5.217 0 2.914 2.38 5.18 4.98 5.18 1.24 0 2.225-.552 2.737-1.183h.08v.75c0 1.988-1.064 3.05-2.777 3.05-1.398 0-2.265-1.003-2.62-1.85l-1.988.827c.57 1.378 2.087 3.072 4.608 3.072 2.678 0 4.942-1.58 4.942-5.42v-9.33H97.25v.84zm-2.62 7.188c-1.575 0-2.894-1.32-2.894-3.13 0-1.832 1.32-3.17 2.894-3.17 1.556 0 2.777 1.338 2.777 3.17 0 1.81-1.22 3.13-2.777 3.13zm29.8-13.547h-5.466v15.28h2.28v-5.79h3.185c2.52 0 5.01-1.83 5.01-4.744s-2.49-4.746-5.02-4.746zm.058 7.364h-3.243V22h3.243c1.705 0 2.674 1.412 2.674 2.62 0 1.183-.97 2.617-2.674 2.617zm14.095-2.19c-1.652 0-3.362.73-4.07 2.34l2.025.85c.433-.84 1.238-1.12 2.084-1.12 1.18 0 2.378.71 2.398 1.97v.16c-.413-.23-1.297-.59-2.38-.59-2.18 0-4.402 1.2-4.402 3.44 0 2.05 1.79 3.36 3.794 3.36 1.533 0 2.38-.69 2.91-1.49h.078v1.18h2.202v-5.86c0-2.71-2.025-4.22-4.64-4.22zm-.276 8.38c-.747 0-1.79-.37-1.79-1.29 0-1.18 1.3-1.63 2.42-1.63 1.002 0 1.474.22 2.083.51-.177 1.42-1.396 2.42-2.713 2.42zm12.935-8.04L148.627 32h-.078l-2.72-6.626h-2.46l4.07 9.26-2.32 5.15h2.38l6.27-14.41h-2.54zM130.7 35.15h2.28V19.87h-2.28v15.28z" fill="#fff"></path>
    <linearGradient id="SVGID_1_" x1="26.644" x2="6.132" y1="-8.125" y2="-28.637" gradientUnits="userSpaceOnUse" gradientTransform="matrix(1 0 0 -1 0 1)">
        <stop offset="0" stop-color="#00A0FF"></stop>
        <stop offset=".007" stop-color="#00A1FF"></stop>
        <stop offset=".26" stop-color="#00BEFF"></stop>
        <stop offset=".512" stop-color="#00D2FF"></stop>
        <stop offset=".76" stop-color="#00DFFF"></stop>
        <stop offset="1" stop-color="#00E3FF"></stop>
    </linearGradient>
    <path d="M12.754 7.693c-.355.376-.565.96-.565 1.717v27.03c0 .758.21 1.342.56 1.718l.09.088 15.14-15.142v-.358L12.84 7.606l-.09.09z" fill="url(#SVGID_1_)"></path>
    <linearGradient id="SVGID_2_" x1="41.353" x2="11.779" y1="-21.926" y2="-21.926" gradientUnits="userSpaceOnUse" gradientTransform="matrix(1 0 0 -1 0 1)">
        <stop offset="0" stop-color="#FFE000"></stop>
        <stop offset=".409" stop-color="#FFBD00"></stop>
        <stop offset=".775" stop-color="#FFA500"></stop>
        <stop offset="1" stop-color="#FF9C00"></stop>
    </linearGradient>
    <path d="M33.034 28.154l-5.047-5.05v-.358l5.048-5.047.114.06 5.98 3.4c1.7.97 1.7 2.56 0 3.53l-5.98 3.39-.12.06z" fill="url(#SVGID_2_)"></path>
    <linearGradient id="SVGID_3_" x1="30.344" x2="2.528" y1="-24.731" y2="-52.546" gradientUnits="userSpaceOnUse" gradientTransform="matrix(1 0 0 -1 0 1)">
        <stop offset="0" stop-color="#FF3A44"></stop>
        <stop offset="1" stop-color="#C31162"></stop>
    </linearGradient>
    <path d="M33.15 28.088l-5.163-5.162-15.233 15.232c.563.596 1.493.67 2.54.075L33.15 28.088" fill="url(#SVGID_3_)"></path>
    <linearGradient id="SVGID_4_" x1="8.919" x2="21.34" y1="2.305" y2="-10.116" gradientUnits="userSpaceOnUse" gradientTransform="matrix(1 0 0 -1 0 1)">
        <stop offset="0" stop-color="#32A071"></stop>
        <stop offset=".069" stop-color="#2DA771"></stop>
        <stop offset=".476" stop-color="#15CF74"></stop>
        <stop offset=".801" stop-color="#06E775"></stop>
        <stop offset="1" stop-color="#00F076"></stop>
    </linearGradient>
    <path d="M33.15 17.763L15.293 7.618c-1.047-.595-1.977-.52-2.54.075l15.233 15.233 5.162-5.163z" fill="url(#SVGID_4_)"></path>
    <path d="M33.035 27.975l-17.74 10.08c-.993.563-1.88.526-2.45.013l-.09.09.09.09v-.002c.57.513 1.457.552 2.45-.013L33.15 28.088l-.116-.113z" opacity="0.2" enable-background="new"></path>
    <path d="M12.754 37.98c-.355-.376-.565-.96-.565-1.717v.18c0 .755.21 1.34.56 1.716l.09-.1-.09-.09zM39.13 24.512l-6.095 3.463.114.113 5.98-3.398c.85-.485 1.28-1.124 1.28-1.764-.08.578-.51 1.146-1.28 1.586z" enable-background="new" opacity="0.12"></path>
    <path d="M15.294 7.797L39.13 21.34c.774.44 1.208 1.006 1.28 1.586 0-.64-.427-1.28-1.28-1.765L15.293 7.62c-1.708-.972-3.105-.166-3.105 1.79v.18c0-1.957 1.396-2.763 3.104-1.793z" enable-background="new" opacity="0.25" fill="#fff"></path>
    <path d="M51.472 15.925h-.9v-2.457h.716c.635-.547.946-1.482.933-2.806V7.036h4.9v6.432h.82v2.457h-.9V14.37h-5.56v1.555zm1.69-5.263c.015 1.16-.218 2.096-.696 2.806h3.708v-5.53h-3.012v2.724zm12.122 2.758c-.72.742-1.617 1.112-2.69 1.112-1.07 0-1.967-.37-2.687-1.11-.72-.74-1.08-1.648-1.08-2.72s.36-1.978 1.08-2.72c.72-.74 1.616-1.11 2.688-1.11 1.066 0 1.96.372 2.685 1.116.723.744 1.084 1.65 1.084 2.714 0 1.072-.36 1.98-1.08 2.72zm-4.68-.613c.542.55 1.206.824 1.99.824.787 0 1.45-.27 1.993-.82.543-.55.815-1.25.815-2.1 0-.85-.272-1.55-.815-2.1-.542-.55-1.206-.82-1.992-.82-.785 0-1.45.28-1.992.83-.542.55-.814 1.25-.814 2.108 0 .854.27 1.556.81 2.105zm10.504 1.725c-1.08 0-1.984-.365-2.714-1.095-.732-.73-1.096-1.643-1.096-2.735s.364-2.004 1.096-2.734c.73-.73 1.635-1.097 2.714-1.097 1.105 0 2.004.4 2.694 1.2l-.657.64c-.497-.62-1.178-.93-2.037-.93-.8 0-1.474.27-2.023.81-.55.54-.825 1.25-.825 2.12 0 .88.274 1.58.825 2.12.55.54 1.223.81 2.023.81.88 0 1.63-.35 2.253-1.06l.66.66c-.33.41-.75.72-1.26.96-.5.24-1.05.36-1.65.36zm6.72-.162h-.943V7.936h-2.048v-.9h5.04v.9h-2.05v6.432zm8.518-7.334l-2.775 6.186c-.38.874-.95 1.31-1.71 1.31-.22 0-.46-.054-.72-.163l.25-.88c.16.09.32.13.49.13.22 0 .39-.04.51-.13s.23-.24.34-.47l.27-.59-2.47-5.42h1.11l1.81 4.21h.04l1.77-4.21h1.11zm1.067 7.334V7.035h5.305v7.333h-.943V7.936h-3.42v6.432h-.942zm6.984 0V7.035h.942v3.143H99V7.035h.943v7.333H99v-3.31h-3.66v3.31h-.943zm13.23-.95c-.72.742-1.618 1.112-2.69 1.112-1.07 0-1.968-.37-2.688-1.11-.73-.74-1.08-1.648-1.08-2.72s.35-1.978 1.08-2.72c.72-.74 1.61-1.11 2.68-1.11 1.06 0 1.96.372 2.68 1.116.72.744 1.08 1.65 1.08 2.714 0 1.072-.36 1.98-1.08 2.72zm-4.68-.613c.54.55 1.204.824 1.99.824.785 0 1.45-.27 1.992-.82.54-.55.81-1.25.81-2.1 0-.85-.27-1.55-.82-2.1-.55-.55-1.21-.82-2-.82s-1.45.28-1.99.83c-.54.55-.82 1.25-.82 2.108 0 .854.27 1.556.81 2.105zm9.613 1.563V7.035h2.65c.575 0 1.072.19 1.492.568.42.38.63.855.63 1.428 0 .35-.09.66-.272.93-.18.27-.42.47-.722.61v.04c.36.13.66.34.89.64.233.3.35.65.35 1.05 0 .6-.22 1.1-.66 1.498-.442.397-.962.595-1.564.595h-2.795zm.94-4.19h1.71c.357 0 .642-.117.857-.354.215-.235.322-.493.322-.773s-.11-.536-.32-.768c-.21-.232-.48-.348-.83-.348h-1.75v2.242zm0 3.288h1.896c.362 0 .655-.127.88-.38.226-.252.34-.53.34-.83 0-.3-.117-.574-.35-.824-.23-.248-.536-.374-.912-.374H113.5v2.408z" fill="#fff"></path>
</svg>
